<?xml version="1.0" encoding="utf-8"?>
<!-- Generator: Adobe Illustrator 22.0.1, SVG Export Plug-In . SVG Version: 6.00 Build 0)  -->
<svg version="1.1" id="Слой_2_1_" xmlns="http://www.w3.org/2000/svg" xmlns:xlink="http://www.w3.org/1999/xlink" x="0px"
	 y="0px" viewBox="0 0 81.5 78.2" style="enable-background:new 0 0 81.5 78.2;" xml:space="preserve">
<style type="text/css">
	.st0{fill:#FFE6AE;}
	.st1{fill:#FFDE8D;}
	.st2{fill:#F49D20;}
</style>
<circle class="st0" cx="49.2" cy="47.6" r="15.8"/>
<rect x="43" y="12.1" class="st1" width="11" height="5.3"/>
<g>
	<g id="XMLID_806_">
		<g id="XMLID_386_">
			<path id="XMLID_389_" class="st2" d="M71.7,43.4c-0.6-5.6-3.1-10.9-7.1-14.9c-3.4-3.4-7.6-5.6-12-6.5l0-3.1
				c1.8-0.5,3.1-2.1,3.1-4c0-2.3-1.9-4.1-4.1-4.1l-8.7,0c-2.3,0-4.1,1.9-4.1,4.1c0,1.9,1.3,3.6,3.1,4l0,3.1c-4.4,1-8.5,3.2-11.9,6.6
				c-0.7,0.7-1.4,1.5-2.1,2.3c0,0-0.1,0-0.1,0l-8.6,0c-0.7,0-1.2,0.5-1.2,1.2c0,0.7,0.5,1.2,1.2,1.2l7.1,0c-0.9,1.5-1.6,3.1-2.1,4.7
				l-13.2,0c-0.7,0-1.2,0.5-1.2,1.2c0,0.7,0.5,1.2,1.2,1.2l12.5,0c-0.3,1.5-0.5,3.1-0.6,4.7l-5.4,0c-0.7,0-1.2,0.5-1.2,1.2
				c0,0.7,0.5,1.2,1.2,1.2l5.4,0c0.1,1.6,0.4,3.1,0.8,4.7l-7.9,0c-0.7,0-1.2,0.5-1.2,1.2s0.5,1.2,1.2,1.2l8.6,0
				c1.2,3.1,3.1,6.1,5.6,8.6c4,4,9.3,6.5,14.9,7c0.8,0.1,1.6,0.1,2.4,0.1c4.7,0,9.4-1.4,13.4-4c0.6-0.4,0.7-1.1,0.3-1.7
				c-0.4-0.6-1.1-0.7-1.7-0.3c-8.7,5.7-20.3,4.5-27.7-2.8C23.1,53,23.1,39,31.7,30.3c8.6-8.6,22.6-8.7,31.2-0.1
				c7.4,7.3,8.6,18.9,3,27.6c-0.4,0.6-0.2,1.3,0.4,1.7c0.6,0.4,1.3,0.2,1.7-0.4C70.9,54.5,72.3,48.9,71.7,43.4z M41.1,14.9
				c0-0.9,0.8-1.7,1.7-1.7l8.7,0c0.9,0,1.7,0.8,1.7,1.7s-0.8,1.7-1.7,1.7l-0.2,0l-8.3,0l-0.2,0C41.9,16.6,41.1,15.9,41.1,14.9z
				 M44.3,21.6l0-2.6l5.9,0l0,2.5C48.2,21.3,46.2,21.3,44.3,21.6z"/>
			<path id="XMLID_391_" class="st2" d="M63.9,61.1c-0.3,0-0.6,0.1-0.9,0.4c-0.2,0.2-0.4,0.5-0.4,0.9c0,0.3,0.1,0.6,0.4,0.9
				c0.2,0.2,0.5,0.4,0.9,0.4c0.3,0,0.6-0.1,0.9-0.4c0.2-0.2,0.4-0.5,0.4-0.9c0-0.3-0.1-0.6-0.4-0.9C64.5,61.2,64.2,61.1,63.9,61.1z"
				/>
			<path id="XMLID_394_" class="st2" d="M47.3,27.1c-10.4,0-18.8,8.5-18.8,18.9c0,10.4,8.5,18.8,18.9,18.8
				c10.4,0,18.8-8.5,18.8-18.9S57.6,27,47.3,27.1z M47.4,62.3c-9,0-16.4-7.3-16.5-16.3c0-9,7.3-16.4,16.3-16.5
				c9,0,16.4,7.3,16.5,16.3S56.4,62.3,47.4,62.3z"/>
			<path id="XMLID_398_" class="st2" d="M61.4,44.7l-1.1,0c-0.7,0-1.2,0.5-1.2,1.2s0.5,1.2,1.2,1.2l1.1,0c0.7,0,1.2-0.5,1.2-1.2
				C62.6,45.2,62.1,44.6,61.4,44.7z"/>
			<path id="XMLID_399_" class="st2" d="M34.6,44.7l-1.1,0c-0.7,0-1.2,0.5-1.2,1.2s0.5,1.2,1.2,1.2l1.1,0c0.7,0,1.2-0.5,1.2-1.2
				C35.9,45.2,35.3,44.7,34.6,44.7z"/>
			<path id="XMLID_400_" class="st2" d="M47.3,34.1c0.7,0,1.2-0.5,1.2-1.2l0-1.1c0-0.7-0.5-1.2-1.2-1.2c-0.7,0-1.2,0.5-1.2,1.2
				l0,1.1C46.1,33.5,46.6,34.1,47.3,34.1z"/>
			<path id="XMLID_424_" class="st2" d="M47.3,57.2c-0.7,0-1.2,0.5-1.2,1.2l0,1.1c0,0.7,0.5,1.2,1.2,1.2c0.7,0,1.2-0.5,1.2-1.2
				l0-1.1C48.6,57.7,48,57.2,47.3,57.2z"/>
			<path id="XMLID_425_" class="st2" d="M10.9,52.3c-0.3,0-0.6,0.1-0.9,0.4c-0.2,0.2-0.4,0.5-0.4,0.9c0,0.3,0.1,0.6,0.4,0.9
				c0.2,0.2,0.5,0.4,0.9,0.4c0.3,0,0.6-0.1,0.9-0.4c0.2-0.2,0.4-0.5,0.4-0.9c0-0.3-0.1-0.6-0.4-0.9C11.6,52.4,11.3,52.3,10.9,52.3z"
				/>
		</g>
	</g>
	<path id="XMLID_103_" class="st2" d="M13.4,29.7c-0.3,0-0.6,0.1-0.9,0.4c-0.2,0.2-0.4,0.5-0.4,0.9c0,0.3,0.1,0.6,0.4,0.9
		s0.5,0.4,0.9,0.4s0.6-0.1,0.9-0.4c0.2-0.2,0.4-0.5,0.4-0.9c0-0.3-0.1-0.6-0.4-0.9C14,29.9,13.7,29.7,13.4,29.7z"/>
	<g>
		<path class="st2" d="M37.3,41.2c0-0.6,0.1-1.2,0.3-1.7c0.2-0.5,0.5-1,0.9-1.4c0.4-0.4,0.8-0.7,1.3-0.9c0.5-0.2,1.1-0.3,1.6-0.3
			c0.6,0,1.1,0.1,1.6,0.3c0.5,0.2,1,0.5,1.3,0.9c0.4,0.4,0.7,0.9,0.9,1.4c0.2,0.5,0.3,1.1,0.3,1.7c0,1.1-0.4,2.2-1.3,3.1
			c1.4,1.1,2.1,2.5,2.1,4.1c0,0.7-0.1,1.4-0.4,2C45.9,51,45.5,51.5,45,52c-0.5,0.5-1,0.8-1.6,1.1c-0.6,0.3-1.3,0.4-2,0.4
			c-0.7,0-1.3-0.1-2-0.4c-0.6-0.3-1.1-0.6-1.6-1.1c-0.5-0.5-0.8-1-1.1-1.6c-0.3-0.6-0.4-1.3-0.4-2c0-0.3,0.1-0.6,0.3-0.8
			c0.2-0.2,0.5-0.3,0.8-0.3c0.3,0,0.6,0.1,0.8,0.3c0.2,0.2,0.3,0.5,0.3,0.8c0,0.4,0.1,0.8,0.2,1.1c0.1,0.4,0.4,0.7,0.6,0.9
			c0.3,0.3,0.6,0.5,0.9,0.6c0.3,0.2,0.7,0.2,1.1,0.2c0.4,0,0.8-0.1,1.1-0.2c0.3-0.2,0.7-0.4,0.9-0.6c0.3-0.3,0.5-0.6,0.6-0.9
			c0.1-0.4,0.2-0.7,0.2-1.1c0-0.4-0.1-0.8-0.2-1.1c-0.1-0.4-0.4-0.7-0.6-0.9c-0.3-0.3-0.6-0.5-0.9-0.6c-0.3-0.2-0.7-0.2-1.1-0.2
			c-0.3,0-0.6-0.1-0.8-0.3s-0.3-0.5-0.3-0.8c0-0.3,0.1-0.6,0.3-0.8s0.5-0.3,0.8-0.3c0.3,0,0.5-0.1,0.8-0.2c0.3-0.1,0.5-0.3,0.7-0.5
			c0.2-0.2,0.3-0.4,0.4-0.7s0.2-0.5,0.2-0.8c0-0.3-0.1-0.6-0.2-0.8c-0.1-0.3-0.3-0.5-0.5-0.7c-0.2-0.2-0.4-0.3-0.7-0.5
			c-0.2-0.1-0.5-0.2-0.8-0.2c-0.3,0-0.6,0.1-0.8,0.2c-0.3,0.1-0.5,0.3-0.7,0.5c-0.2,0.2-0.3,0.4-0.4,0.7c-0.1,0.3-0.2,0.5-0.2,0.8
			c0,0.3-0.1,0.6-0.3,0.8c-0.2,0.2-0.5,0.3-0.8,0.3c-0.3,0-0.6-0.1-0.8-0.3C37.4,41.8,37.3,41.5,37.3,41.2z"/>
		<path class="st2" d="M48.1,45.2c0-1.3,0.1-2.5,0.3-3.5c0.2-1,0.6-1.9,1-2.6c0.4-0.7,1-1.3,1.6-1.6c0.6-0.4,1.3-0.6,2.2-0.6
			c0.8,0,1.5,0.2,2.2,0.6c0.6,0.4,1.2,0.9,1.6,1.7c0.4,0.7,0.8,1.6,1,2.6c0.2,1,0.3,2.2,0.3,3.5c0,1.3-0.1,2.4-0.3,3.5
			c-0.2,1-0.6,1.9-1,2.6c-0.4,0.7-1,1.3-1.6,1.7s-1.3,0.6-2.2,0.6c-0.8,0-1.5-0.2-2.2-0.6c-0.6-0.4-1.2-0.9-1.6-1.6
			c-0.4-0.7-0.8-1.6-1-2.6C48.2,47.7,48.1,46.5,48.1,45.2z M53.2,39.1c-0.5,0-0.9,0.2-1.3,0.5c-0.4,0.3-0.7,0.7-0.9,1.3
			c-0.2,0.5-0.4,1.2-0.5,1.9s-0.2,1.6-0.2,2.4c0,0.9,0.1,1.7,0.2,2.5c0.1,0.8,0.3,1.4,0.5,1.9c0.2,0.5,0.5,1,0.9,1.3
			c0.4,0.3,0.8,0.5,1.3,0.5c0.5,0,0.9-0.2,1.3-0.5c0.4-0.3,0.7-0.7,0.9-1.3c0.2-0.5,0.4-1.2,0.5-1.9c0.1-0.7,0.2-1.6,0.2-2.4
			c0-0.9-0.1-1.7-0.2-2.4c-0.1-0.7-0.3-1.4-0.5-1.9c-0.2-0.5-0.5-1-0.9-1.3C54.1,39.2,53.6,39.1,53.2,39.1z"/>
	</g>
</g>
</svg>
