<?xml version="1.0" encoding="utf-8"?>
<!-- Generator: Adobe Illustrator 22.0.1, SVG Export Plug-In . SVG Version: 6.00 Build 0)  -->
<svg version="1.1" id="Слой_2_1_" xmlns="http://www.w3.org/2000/svg" xmlns:xlink="http://www.w3.org/1999/xlink" x="0px"
	 y="0px" viewBox="0 0 81.5 78.2" style="enable-background:new 0 0 81.5 78.2;" xml:space="preserve">
<style type="text/css">
	.st0{fill:#FFE6AE;}
	.st1{fill:#FFDE8D;}
	.st2{fill:#F49D20;}
</style>
<ellipse class="st0" cx="60.7" cy="34" rx="6.8" ry="7.6"/>
<ellipse class="st0" cx="42.6" cy="21.5" rx="6.8" ry="7.6"/>
<ellipse class="st0" cx="23.8" cy="33.8" rx="6.8" ry="7.6"/>
<rect x="29.1" y="50.2" class="st0" width="32.6" height="15.4"/>
<g>
	<path class="st2" d="M63.7,65.6L63.7,65.6l0-8.6V55v-1.9h4.8c0.5,0,1-0.4,1-1c0-0.3-0.1-0.5-0.3-0.7l-5.8-5.8
		c-0.2-0.2-0.4-0.3-0.7-0.3H18.6c-0.3,0-0.5,0.1-0.7,0.3l-5.8,5.8c-0.4,0.4-0.4,1,0,1.4c0.2,0.2,0.4,0.3,0.7,0.3h3.8v12.5h-0.1v1.9
		h47.1V65.6z M61.8,65.6H50.2v-8.6h11.5V65.6z M27.2,65.6v-15l2.9-2.9l5.1,5.1c0.2,0.2,0.4,0.3,0.7,0.3h7.7V55v1.9v8.6H27.2z
		 M24.3,53.1c0.3,0,0.5-0.1,0.7-0.3l0.3-0.3v13h-2.9V53.1H24.3z M48.3,53.1V55h-2.9v-1.9H48.3z M45.4,56.9h2.9v8.6h-2.9V56.9z
		 M61.8,55H50.2v-1.9h11.5V55z M62.3,47.3l3.8,3.8H36.2l-3.8-3.8H62.3z M19,47.3h8.8l-3.8,3.8h-8.8L19,47.3z M18.6,53.1h1.9v12.5
		h-1.9V53.1z"/>
	<path class="st2" d="M12.8,32.9c0,5.3,4.3,9.6,9.6,9.6c2.5,0,5-1,6.8-2.8C33,36,33,29.9,29.2,26.1c-3.7-3.8-9.8-3.8-13.6-0.1
		c0,0,0,0-0.1,0.1C13.8,27.9,12.8,30.4,12.8,32.9z M22.4,25.2c4.2,0,7.7,3.4,7.7,7.7s-3.4,7.7-7.7,7.7c-4.2,0-7.7-3.4-7.7-7.7
		c0-2,0.8-4,2.2-5.4C18.4,26.1,20.4,25.2,22.4,25.2z"/>
	<path class="st2" d="M59.8,23.3c-5.3,0-9.6,4.3-9.6,9.6s4.3,9.6,9.6,9.6s9.6-4.3,9.6-9.6c0-2.5-1-5-2.8-6.8
		C64.8,24.3,62.4,23.3,59.8,23.3z M65.3,38.4c-3,3-7.9,3-10.9,0c-3-3-3-7.9,0-10.9s7.9-3,10.9,0c1.4,1.4,2.2,3.4,2.2,5.4
		C67.5,35,66.7,36.9,65.3,38.4z"/>
	<path class="st2" d="M51.2,20.4c0-5.3-4.3-9.6-9.6-9.6S32,15.1,32,20.4s4.3,9.6,9.6,9.6C46.9,30,51.2,25.7,51.2,20.4z M41.6,28.1
		c-4.2,0-7.7-3.4-7.7-7.7s3.4-7.7,7.7-7.7s7.7,3.4,7.7,7.7C49.3,24.7,45.8,28.1,41.6,28.1z"/>
	<rect x="39.7" y="32" class="st2" width="1.9" height="11.5"/>
	<path class="st2" d="M43.5,43.5h1.9v-3.8c0-1.1,0.9-1.9,1.9-1.9v-1.9c-2.1,0-3.8,1.7-3.8,3.8V43.5z"/>
	<path class="st2" d="M37.8,43.5v-5.8c0-2.1-1.7-3.8-3.8-3.8v1.9c1.1,0,1.9,0.9,1.9,1.9v5.8H37.8z"/>
	<path class="st2" d="M32.3,10.8c-2.7,2.5-4.1,6-4.1,9.7c0,0.3,0,0.7,0,1l1.9-0.1c0-0.3,0-0.6,0-0.9c0-3.1,1.3-6.1,3.5-8.3
		L32.3,10.8z"/>
	<path id="XMLID_102_" class="st2" d="M36.8,54.8c-0.3,0-0.6,0.1-0.8,0.4s-0.4,0.5-0.4,0.8c0,0.3,0.1,0.6,0.4,0.8s0.5,0.4,0.8,0.4
		s0.6-0.1,0.8-0.4c0.2-0.2,0.4-0.5,0.4-0.8s-0.1-0.6-0.4-0.8C37.4,54.9,37.1,54.8,36.8,54.8z"/>
	<path id="XMLID_101_" class="st2" d="M68.5,43.2c-0.3,0-0.6,0.1-0.8,0.4s-0.4,0.5-0.4,0.8c0,0.3,0.1,0.6,0.4,0.8
		c0.2,0.2,0.5,0.4,0.8,0.4s0.6-0.1,0.8-0.4c0.2-0.2,0.4-0.5,0.4-0.8s-0.1-0.6-0.4-0.8C69.1,43.4,68.8,43.2,68.5,43.2z"/>
	<path id="XMLID_99_" class="st2" d="M55,11.6c-0.3,0-0.6,0.1-0.8,0.4c-0.2,0.2-0.4,0.5-0.4,0.8c0,0.3,0.1,0.6,0.4,0.8
		c0.2,0.2,0.5,0.4,0.8,0.4c0.3,0,0.6-0.1,0.8-0.4c0.2-0.2,0.4-0.5,0.4-0.8c0-0.3-0.1-0.6-0.4-0.8C55.7,11.7,55.3,11.6,55,11.6z"/>
	<path id="XMLID_97_" class="st2" d="M21.4,17.1c-0.3,0-0.6,0.1-0.8,0.4s-0.4,0.5-0.4,0.8c0,0.3,0.1,0.6,0.4,0.8s0.5,0.4,0.8,0.4
		c0.3,0,0.6-0.1,0.8-0.4c0.2-0.2,0.4-0.5,0.4-0.8s-0.1-0.6-0.4-0.8C22.1,17.2,21.8,17.1,21.4,17.1z"/>
	<path id="XMLID_96_" class="st2" d="M13.8,43.2c-0.3,0-0.6,0.1-0.8,0.4c-0.2,0.2-0.4,0.5-0.4,0.8c0,0.3,0.1,0.6,0.4,0.8
		c0.2,0.2,0.5,0.4,0.8,0.4s0.6-0.1,0.8-0.4c0.2-0.2,0.4-0.5,0.4-0.8s-0.1-0.6-0.4-0.8C14.4,43.4,14.1,43.2,13.8,43.2z"/>
	<g>
		<path class="st2" d="M42.5,16.1v3.6h3.4v1.5h-3.4v3.6h-1.6v-3.6h-3.4v-1.5h3.4v-3.6H42.5z"/>
	</g>
	<g>
		<path class="st2" d="M60.7,28.9v3.6h3.4V34h-3.4v3.6h-1.6V34h-3.4v-1.5h3.4v-3.6H60.7z"/>
	</g>
	<g>
		<path class="st2" d="M22.8,28.9v3.6h3.4V34h-3.4v3.6h-1.6V34h-3.4v-1.5h3.4v-3.6H22.8z"/>
	</g>
</g>
</svg>
