<?xml version="1.0" encoding="utf-8"?>
<!-- Generator: Adobe Illustrator 22.0.1, SVG Export Plug-In . SVG Version: 6.00 Build 0)  -->
<svg version="1.1" id="Слой_2_1_" xmlns="http://www.w3.org/2000/svg" xmlns:xlink="http://www.w3.org/1999/xlink" x="0px"
	 y="0px" viewBox="0 0 81.5 78.2" style="enable-background:new 0 0 81.5 78.2;" xml:space="preserve">
<style type="text/css">
	.st0{fill:#FFE6AE;}
	.st1{fill:#FFDE8D;}
	.st2{fill:#F49D20;}
</style>
<path class="st0" d="M57.9,60.6h-2.3V54h5.2v3.6C60.8,59.2,59.5,60.6,57.9,60.6z"/>
<path class="st0" d="M43,32.9H27.1c-1.2,0-2.2-1-2.2-2.2V26c0-1.2,1-2.2,2.2-2.2H43c1.2,0,2.2,1,2.2,2.2v4.7
	C45.2,31.9,44.2,32.9,43,32.9z"/>
<path class="st0" d="M60.8,44.2h-6v-8.7l-2.6-2.9l0.7-6.5h5.3c1.4,0,2.6,1.3,2.6,2.9V44.2z"/>
<g>
	<path class="st2" d="M53,47.6c-0.6,0-1.1,0.5-1.1,1.1s0.5,1.1,1.1,1.1c0.6,0,1.1-0.5,1.1-1.1S53.6,47.6,53,47.6z"/>
	<path class="st2" d="M29,27.9c0.6,0,1.1-0.5,1.1-1.1v-4.4c0-0.6-0.5-1.1-1.1-1.1c-0.6,0-1.1,0.5-1.1,1.1v4.4
		C27.9,27.4,28.4,27.9,29,27.9z"/>
	<path class="st2" d="M34.8,38c0,0.6,0.5,1.1,1.1,1.1h4.4c0.6,0,1.1-0.5,1.1-1.1s-0.5-1.1-1.1-1.1H36C35.3,36.9,34.8,37.4,34.8,38z"
		/>
	<path class="st2" d="M21.6,60.5c0,0.6,0.5,1.1,1.1,1.1h4.4c0.6,0,1.1-0.5,1.1-1.1s-0.5-1.1-1.1-1.1h-4.4
		C22.1,59.4,21.6,59.9,21.6,60.5z"/>
	<path class="st2" d="M64,38v-8.2c0-2.8-2.3-5.1-5.1-5.1h-5.7v-7.8c0-1.7-1.4-3.1-3.1-3.1H31c-1.7,0-3.1,1.4-3.1,3.1v3.7h-3.1
		c-1.7,0-3.1,1.4-3.1,3.1v1h-1c-2.8,0-5.1,2.3-5.1,5.1v31.3c0,2.8,2.3,5.1,5.1,5.1h31.3c2.5,0,4.5-1.8,5-4.1h1.7
		c2.8,0,5.1-2.3,5.1-5.1v-2.7h1c1.7,0,3.1-1.4,3.1-3.1v-9.2C68.1,39.9,66.2,38,64,38z M66,42.1c0,1.1-0.9,2-2,2v-4.1
		C65.1,40.1,66,41,66,42.1z M58.9,26.8c1.7,0,3.1,1.4,3.1,3.1v14.3h-4.7V38c0-2.5-1.8-4.5-4.1-5v-6.2H58.9z M30,16.9
		c0-0.6,0.5-1,1-1h19c0.6,0,1,0.5,1,1v16h-4.7v-9.2c0-1.7-1.4-3.1-3.1-3.1H30V16.9z M40.2,32.9V22.7h3.1c0.6,0,1,0.5,1,1v9.2H40.2z
		 M34.1,32.9V22.7h4.1v10.2H34.1z M23.8,23.7c0-0.6,0.5-1,1-1H32v10.2h-8.2V23.7z M20.8,26.8h1v6.1H21c-1.7,0-3.3-1.2-3.3-3.1
		C17.7,28.1,19.1,26.8,20.8,26.8z M52.1,64.2H20.8c-1.7,0-3.1-1.4-3.1-3.1V33.9c0.9,0.7,2.1,1.1,3.3,1.1h31.1c1.7,0,3.1,1.4,3.1,3.1
		v6.1H48c-1.7,0-3.1,1.4-3.1,3.1v4.1c0,1.7,1.4,3.1,3.1,3.1h7.2v6.8C55.2,62.9,53.8,64.2,52.1,64.2z M61.9,57.1
		c0,1.7-1.4,3.1-3.1,3.1h-1.6v-5.7h4.7V57.1z M65,52.4H48c-0.6,0-1-0.5-1-1v-4.1c0-0.6,0.5-1,1-1h16c0.7,0,1.4-0.2,2-0.5v5.7
		C66,51.9,65.6,52.4,65,52.4z"/>
	<path class="st2" d="M62.5,47.6h-5.1c-0.6,0-1.1,0.5-1.1,1.1s0.5,1.1,1.1,1.1h5.1c0.6,0,1.1-0.5,1.1-1.1S63.1,47.6,62.5,47.6z"/>
	<path id="XMLID_104_" class="st2" d="M56.3,15.6c-0.3,0-0.6,0.1-0.8,0.3s-0.3,0.5-0.3,0.8c0,0.3,0.1,0.6,0.3,0.8s0.5,0.3,0.8,0.3
		c0.3,0,0.6-0.1,0.8-0.3c0.2-0.2,0.3-0.5,0.3-0.8c0-0.3-0.1-0.6-0.3-0.8C56.9,15.7,56.6,15.6,56.3,15.6z"/>
	<path id="XMLID_105_" class="st2" d="M23.1,15.7c-0.3,0-0.6,0.1-0.8,0.3c-0.2,0.2-0.3,0.5-0.3,0.8c0,0.3,0.1,0.6,0.3,0.8
		c0.2,0.2,0.5,0.3,0.8,0.3c0.3,0,0.6-0.1,0.8-0.3c0.2-0.2,0.3-0.5,0.3-0.8s-0.1-0.6-0.3-0.8C23.6,15.9,23.4,15.7,23.1,15.7z"/>
	<path id="XMLID_106_" class="st2" d="M19.5,11.9c-0.3,0-0.5,0.1-0.7,0.3c-0.2,0.2-0.3,0.5-0.3,0.7c0,0.3,0.1,0.5,0.3,0.7
		c0.2,0.2,0.5,0.3,0.7,0.3s0.5-0.1,0.7-0.3c0.2-0.2,0.3-0.5,0.3-0.7s-0.1-0.5-0.3-0.7C20.1,12.1,19.8,11.9,19.5,11.9z"/>
	<path id="XMLID_95_" class="st2" d="M36.4,59.4c-0.3,0-0.6,0.1-0.8,0.3s-0.3,0.5-0.3,0.8c0,0.3,0.1,0.6,0.3,0.8
		c0.2,0.2,0.5,0.3,0.8,0.3s0.6-0.1,0.8-0.3c0.2-0.2,0.3-0.5,0.3-0.8s-0.1-0.6-0.3-0.8C37,59.5,36.7,59.4,36.4,59.4z"/>
	<path id="XMLID_94_" class="st2" d="M25,36.9c-0.3,0-0.6,0.1-0.8,0.3s-0.3,0.5-0.3,0.8c0,0.3,0.1,0.6,0.3,0.8
		c0.2,0.2,0.5,0.3,0.8,0.3c0.3,0,0.6-0.1,0.8-0.3c0.2-0.2,0.3-0.5,0.3-0.8s-0.1-0.6-0.3-0.8C25.5,37.1,25.3,36.9,25,36.9z"/>
	<path id="XMLID_93_" class="st2" d="M32,59.4c-0.3,0-0.6,0.1-0.8,0.3c-0.2,0.2-0.3,0.5-0.3,0.8c0,0.3,0.1,0.6,0.3,0.8
		c0.2,0.2,0.5,0.3,0.8,0.3c0.3,0,0.6-0.1,0.8-0.3c0.2-0.2,0.3-0.5,0.3-0.8s-0.1-0.6-0.3-0.8C32.6,59.5,32.3,59.4,32,59.4z"/>
	<g>
		<path class="st2" d="M22.8,45c0-0.6,0.1-1.1,0.3-1.5s0.5-0.9,0.8-1.3c0.4-0.4,0.8-0.6,1.2-0.8c0.5-0.2,1-0.3,1.5-0.3
			c0.5,0,1,0.1,1.5,0.3c0.5,0.2,0.9,0.5,1.2,0.9c0.4,0.4,0.6,0.8,0.8,1.3c0.2,0.5,0.3,1,0.3,1.5c0,1.1-0.4,2-1.2,2.8
			c1.3,1,1.9,2.3,1.9,3.8c0,0.6-0.1,1.2-0.4,1.8c-0.2,0.6-0.6,1.1-1,1.5c-0.4,0.4-0.9,0.8-1.5,1c-0.6,0.2-1.2,0.4-1.8,0.4
			c-0.6,0-1.2-0.1-1.8-0.4c-0.6-0.2-1-0.6-1.5-1c-0.4-0.4-0.7-0.9-1-1.5c-0.2-0.6-0.4-1.2-0.4-1.8c0-0.3,0.1-0.5,0.3-0.7
			c0.2-0.2,0.4-0.3,0.7-0.3c0.3,0,0.5,0.1,0.7,0.3c0.2,0.2,0.3,0.4,0.3,0.7c0,0.4,0.1,0.7,0.2,1c0.1,0.3,0.3,0.6,0.6,0.8
			c0.2,0.2,0.5,0.4,0.8,0.6c0.3,0.1,0.7,0.2,1,0.2c0.4,0,0.7-0.1,1-0.2c0.3-0.1,0.6-0.3,0.8-0.6c0.2-0.2,0.4-0.5,0.6-0.8
			c0.1-0.3,0.2-0.7,0.2-1s-0.1-0.7-0.2-1c-0.1-0.3-0.3-0.6-0.6-0.8c-0.2-0.2-0.5-0.4-0.8-0.6C27.4,49,27,49,26.7,49
			c-0.3,0-0.5-0.1-0.7-0.3c-0.2-0.2-0.3-0.4-0.3-0.7c0-0.3,0.1-0.5,0.3-0.7c0.2-0.2,0.4-0.3,0.7-0.3c0.3,0,0.5-0.1,0.7-0.2
			c0.2-0.1,0.4-0.2,0.6-0.4c0.2-0.2,0.3-0.4,0.4-0.6c0.1-0.2,0.2-0.5,0.2-0.7c0-0.3-0.1-0.5-0.2-0.8c-0.1-0.2-0.2-0.4-0.4-0.6
			c-0.2-0.2-0.4-0.3-0.6-0.4c-0.2-0.1-0.5-0.2-0.7-0.2c-0.3,0-0.5,0.1-0.7,0.2c-0.2,0.1-0.4,0.2-0.6,0.4c-0.2,0.2-0.3,0.4-0.4,0.6
			c-0.1,0.2-0.1,0.5-0.1,0.8c0,0.3-0.1,0.5-0.3,0.7c-0.2,0.2-0.4,0.3-0.7,0.3c-0.3,0-0.5-0.1-0.7-0.3C22.9,45.5,22.8,45.3,22.8,45z"
			/>
		<path class="st2" d="M32.7,48.7c0-1.2,0.1-2.3,0.3-3.2c0.2-0.9,0.5-1.7,0.9-2.4c0.4-0.7,0.9-1.2,1.5-1.5c0.6-0.3,1.2-0.5,2-0.5
			c0.7,0,1.4,0.2,2,0.5c0.6,0.4,1.1,0.9,1.5,1.5c0.4,0.7,0.7,1.5,0.9,2.4c0.2,0.9,0.3,2,0.3,3.2c0,1.2-0.1,2.2-0.3,3.2
			c-0.2,0.9-0.5,1.7-0.9,2.4c-0.4,0.7-0.9,1.2-1.5,1.5c-0.6,0.4-1.2,0.5-2,0.5c-0.7,0-1.4-0.2-2-0.5c-0.6-0.3-1.1-0.8-1.5-1.5
			c-0.4-0.6-0.7-1.4-0.9-2.4C32.8,51,32.7,49.9,32.7,48.7z M37.4,43.1c-0.4,0-0.8,0.1-1.2,0.4s-0.6,0.7-0.8,1.2
			c-0.2,0.5-0.4,1.1-0.5,1.8c-0.1,0.7-0.2,1.4-0.2,2.2c0,0.8,0.1,1.6,0.2,2.2c0.1,0.7,0.3,1.3,0.5,1.8c0.2,0.5,0.5,0.9,0.8,1.2
			c0.3,0.3,0.7,0.4,1.2,0.4c0.4,0,0.8-0.1,1.2-0.4c0.3-0.3,0.6-0.7,0.8-1.2c0.2-0.5,0.4-1.1,0.5-1.8c0.1-0.7,0.2-1.4,0.2-2.2
			c0-0.8-0.1-1.5-0.2-2.2c-0.1-0.7-0.3-1.3-0.5-1.8c-0.2-0.5-0.5-0.9-0.8-1.2C38.2,43.2,37.8,43.1,37.4,43.1z"/>
	</g>
</g>
</svg>
