<?xml version="1.0" encoding="utf-8"?>
<!-- Generator: Adobe Illustrator 22.0.1, SVG Export Plug-In . SVG Version: 6.00 Build 0)  -->
<svg version="1.1" id="Слой_2_1_" xmlns="http://www.w3.org/2000/svg" xmlns:xlink="http://www.w3.org/1999/xlink" x="0px"
	 y="0px" viewBox="0 0 81.5 78.2" style="enable-background:new 0 0 81.5 78.2;" xml:space="preserve">
<style type="text/css">
	.st0{fill:#FFE6AE;}
	.st1{fill:#FFDE8D;}
	.st2{fill:#F49D20;}
</style>
<g>
	<polygon class="st0" points="65.9,37 51.9,37 51.9,24.8 54.9,24.8 	"/>
	<circle class="st0" cx="32.3" cy="53.6" r="4.5"/>
	<circle class="st0" cx="64.9" cy="53.4" r="4.5"/>
</g>
<g>
	<path class="st2" d="M23,30.7c-0.3,0-0.6,0.1-0.8,0.3s-0.3,0.5-0.3,0.8c0,0.3,0.1,0.6,0.3,0.8c0.2,0.2,0.5,0.3,0.8,0.3
		s0.6-0.1,0.8-0.3c0.2-0.2,0.3-0.5,0.3-0.8c0-0.3-0.1-0.6-0.3-0.8C23.5,30.8,23.2,30.7,23,30.7z"/>
	<path class="st2" d="M5.9,26.7c0.3,0,0.6-0.1,0.8-0.3C6.9,26.2,7,25.9,7,25.7s-0.1-0.6-0.3-0.8c-0.2-0.2-0.5-0.3-0.8-0.3
		s-0.6,0.1-0.8,0.3s-0.3,0.5-0.3,0.8c0,0.3,0.1,0.6,0.3,0.8C5.4,26.6,5.7,26.7,5.9,26.7z"/>
	<path class="st2" d="M6.5,37.7c-0.2,0.2-0.3,0.5-0.3,0.8c0,0.3,0.1,0.6,0.3,0.8s0.5,0.3,0.8,0.3s0.6-0.1,0.8-0.3
		c0.2-0.2,0.3-0.5,0.3-0.8S8.3,37.9,8,37.7c-0.2-0.2-0.5-0.3-0.8-0.3S6.7,37.5,6.5,37.7z"/>
	<path class="st2" d="M76.3,37.3L56.5,20.2c-1-0.7-1.9-1.1-3-1.1H19.2c-2.1,0-3.8,1.7-3.8,3.8v0.4v1.8h-4.5c-0.7,0-1.3,0.6-1.3,1.3
		s0.6,1.3,1.3,1.3h4.5v1.7v8.2h-2.6c-0.7,0-1.3,0.6-1.3,1.3s0.6,1.3,1.3,1.3h2.6v2.5v1.2H6.8c-0.7,0-1.3,0.6-1.3,1.3
		c0,0.7,0.6,1.3,1.3,1.3h8.6V50v3c0,0.7,0.6,1.3,1.3,1.3h8c0.6,3.4,3.6,5.9,7,5.9s6.4-2.5,7-5.9h18.8c0.6,3.4,3.6,5.9,7,5.9
		s6.4-2.5,7-5.9h4.6c1.4,0,2.6-1.1,2.6-2.6v-8.9C78.8,40.7,77.9,38.7,76.3,37.3z M64.5,48.4c2.6,0,4.7,2.1,4.7,4.7
		c0,2.6-2.1,4.7-4.7,4.7s-4.7-2.1-4.7-4.7C59.9,50.5,61.9,48.4,64.5,48.4z M31.6,57.7c-2.6,0-4.7-2.1-4.7-4.7c0-2.6,2.1-4.7,4.7-4.7
		s4.7,2.1,4.7,4.7C36.3,55.6,34.2,57.7,31.6,57.7z M17.9,50v-4.6v-2.9v-3.3v-0.9v-9v-3.4v-2.6v-0.4c0-0.7,0.6-1.3,1.3-1.3h34.3
		c0.5,0,0.9,0.2,1.4,0.5l19.7,17.1c1,0.9,1.6,2.2,1.6,3.6l-0.1,9h-4.6c-0.6-3.4-3.6-5.9-7-5.9s-6.4,2.5-7,5.9H38.7
		c-0.6-3.4-3.6-5.9-7-5.9s-6.4,2.5-7,5.9h-6.7V50z"/>
	<path class="st2" d="M50.6,39.3l16,0c0.8,0,1.5-0.5,1.8-1.2c0.3-0.7,0.1-1.5-0.5-2.1L54.8,23.6c-0.4-0.5-0.9-0.8-1.5-0.8h-2.4
		c-1.2,0-2.2,1-2.2,2.2v12.3C48.7,38.4,49.5,39.3,50.6,39.3z M51.2,36.8V25.4H53c0,0,0.1,0.1,0.1,0.1l12,11.4L51.2,36.8z"/>
	<path class="st2" d="M41.5,48.2c0,0.7,0.6,1.3,1.3,1.3h2.5c0.7,0,1.3-0.6,1.3-1.3S46,47,45.3,47h-2.5C42.1,47,41.5,47.5,41.5,48.2z
		"/>
	<path class="st2" d="M49,49.5h6.2c0.7,0,1.3-0.6,1.3-1.3v-2c0-0.7-0.6-1.3-1.3-1.3S54,45.5,54,46.2V47h-5c-0.7,0-1.3,0.6-1.3,1.3
		S48.3,49.5,49,49.5z"/>
	<path class="st2" d="M31,25.4h7.7c0.7,0,1.3-0.6,1.3-1.3s-0.6-1.3-1.3-1.3H31c-0.7,0-1.3,0.6-1.3,1.3S30.3,25.4,31,25.4z"/>
	<path class="st2" d="M22.6,27.2v-1.9h5c0.7,0,1.3-0.6,1.3-1.3s-0.6-1.3-1.3-1.3h-6.3c-0.7,0-1.3,0.6-1.3,1.3v3.1
		c0,0.7,0.6,1.3,1.3,1.3C22,28.5,22.6,27.9,22.6,27.2z"/>
	<path class="st2" d="M14.1,32.6c0-0.7-0.6-1.3-1.3-1.3H4c-0.7,0-1.3,0.6-1.3,1.3s0.6,1.3,1.3,1.3h8.8
		C13.5,33.8,14.1,33.3,14.1,32.6z"/>
	<path class="st2" d="M32.9,35.6c-0.4-0.4-0.9-0.7-1.4-1c-0.5-0.2-1.1-0.4-1.8-0.4h-0.3l2.7-4.4c0.1-0.2,0.1-0.3,0.1-0.5
		c0-0.3-0.1-0.5-0.3-0.7c-0.2-0.2-0.4-0.3-0.7-0.3c-0.2,0-0.4,0-0.5,0.1c-0.1,0.1-0.3,0.2-0.4,0.4l-4.5,7.5l0,0
		c-0.5,0.7-0.7,1.6-0.7,2.5c0,0.6,0.1,1.2,0.4,1.8c0.2,0.6,0.6,1,1,1.4c0.4,0.4,0.9,0.7,1.4,1c0.5,0.2,1.1,0.4,1.8,0.4
		c0.6,0,1.2-0.1,1.8-0.4c0.5-0.2,1-0.6,1.4-1c0.4-0.4,0.7-0.9,1-1.4c0.2-0.5,0.4-1.1,0.4-1.8c0-0.6-0.1-1.2-0.4-1.8
		C33.6,36.5,33.3,36,32.9,35.6z M32,39.8c-0.1,0.3-0.3,0.6-0.5,0.8c-0.2,0.2-0.5,0.4-0.8,0.6c-0.3,0.1-0.7,0.2-1,0.2
		c-0.4,0-0.7-0.1-1-0.2c-0.3-0.1-0.6-0.3-0.8-0.5c-0.2-0.2-0.4-0.5-0.5-0.8c-0.1-0.3-0.2-0.7-0.2-1c0-0.4,0.1-0.7,0.2-1
		c0.1-0.3,0.3-0.6,0.5-0.8c0.2-0.2,0.5-0.4,0.8-0.5c0.3-0.1,0.7-0.2,1-0.2c0.4,0,0.7,0.1,1,0.2c0.3,0.1,0.6,0.3,0.8,0.6
		c0.2,0.2,0.4,0.5,0.5,0.8c0.1,0.3,0.2,0.6,0.2,1C32.2,39.2,32.2,39.5,32,39.8z"/>
	<path class="st2" d="M36.8,30.3c-0.4,0.6-0.7,1.4-0.9,2.4c-0.2,0.9-0.3,2-0.3,3.2c0,1.2,0.1,2.2,0.3,3.2c0.2,0.9,0.5,1.7,0.9,2.4
		c0.4,0.6,0.9,1.1,1.4,1.5c0.6,0.3,1.2,0.5,2,0.5c0.7,0,1.4-0.2,2-0.5c0.6-0.3,1-0.8,1.4-1.5c0.4-0.6,0.7-1.4,0.9-2.4
		c0.2-0.9,0.3-2,0.3-3.1c0-1.2-0.1-2.2-0.3-3.1c-0.2-0.9-0.5-1.7-0.9-2.4s-0.9-1.1-1.4-1.5c-0.6-0.3-1.2-0.5-2-0.5
		c-0.7,0-1.4,0.2-2,0.5C37.7,29.2,37.2,29.7,36.8,30.3z M40.2,30.3c0.4,0,0.8,0.1,1.1,0.4s0.6,0.7,0.8,1.2c0.2,0.5,0.4,1.1,0.5,1.8
		c0.1,0.7,0.2,1.4,0.2,2.2c0,0.8-0.1,1.5-0.2,2.2c-0.1,0.7-0.3,1.3-0.5,1.7c-0.2,0.5-0.5,0.9-0.8,1.2c-0.3,0.3-0.7,0.4-1.2,0.4
		c-0.4,0-0.8-0.1-1.1-0.4c-0.3-0.3-0.6-0.7-0.8-1.1c-0.2-0.5-0.4-1.1-0.5-1.7c-0.1-0.7-0.2-1.4-0.2-2.2c0-0.8,0.1-1.5,0.2-2.2
		c0.1-0.7,0.3-1.3,0.5-1.7c0.2-0.5,0.5-0.9,0.8-1.2S39.8,30.3,40.2,30.3z"/>
</g>
</svg>
