<?xml version="1.0" encoding="utf-8"?>
<!-- Generator: Adobe Illustrator 22.0.1, SVG Export Plug-In . SVG Version: 6.00 Build 0)  -->
<svg version="1.1" id="Слой_2_1_" xmlns="http://www.w3.org/2000/svg" xmlns:xlink="http://www.w3.org/1999/xlink" x="0px"
	 y="0px" viewBox="0 0 81.5 78.2" style="enable-background:new 0 0 81.5 78.2;" xml:space="preserve">
<style type="text/css">
	.st0{fill:#FFE6AE;}
	.st1{fill:#FFDE8D;}
	.st2{fill:#F49D20;}
</style>
<path class="st0" d="M59.1,32.4c-1.9,5.5-6,10.2-11,13c-2.4,1.3-5.3,2.3-7.8,1.2c-0.3,1.3-0.3,2.6-0.1,3.9c0.1,0.7,0.3,1.5,1,1.9
	c0.7,0.5,1.7,0.2,2.5,0c5.7-2.1,10.3-6.3,14.8-10.5c1-0.9,1.9-1.8,2.6-2.9c0.8-1.3,1.3-2.8,1.7-4.3c0.9-2.9,1.8-5.8,2-8.9
	c0.3-3.4-0.2-7.1-1.8-10.2c-0.8-1.6-3.7-5.2-5.3-2.1c-0.7,1.3,0.7,3,1.2,4.2c0.6,1.5,1,3.1,1.2,4.7C60.5,25.8,60.2,29.2,59.1,32.4z"
	/>
<path class="st0" d="M33.1,51.2c0.6,0.7,1.6,0.9,2.3,1.4c1.4,1,1.8,2.8,1.9,4.4c0.5,4.6-0.2,9.4,1.2,13.8c0.8-1.8,1.3-3.7,1.6-5.6
	c0.2-1.6,0.1-3.3,0.1-5c-0.1-2.7-0.1-5.4-0.3-8.1c-0.1-1.4-0.1-3.2-1-4.3C36.7,45.3,30.6,48.2,33.1,51.2z"/>
<path class="st0" d="M56.7,22c0,0-2,8.4-6.4,13.2c-4.3,4.8-11.9,6.8-11.9,6.8L18.6,7.4L56.7,22z"/>
<g>
	<path class="st2" d="M22.8,43.6c-0.3,0-0.6,0.1-0.9,0.4c-0.2,0.2-0.4,0.5-0.4,0.9c0,0.3,0.1,0.6,0.4,0.9s0.5,0.4,0.9,0.4
		s0.6-0.1,0.9-0.4c0.2-0.2,0.4-0.5,0.4-0.9s-0.1-0.6-0.4-0.9C23.5,43.7,23.2,43.6,22.8,43.6z"/>
	<path class="st2" d="M25.4,37.7c-0.3,0-0.6,0.1-0.9,0.4c-0.2,0.2-0.4,0.5-0.4,0.9c0,0.3,0.1,0.6,0.4,0.9s0.5,0.4,0.9,0.4
		s0.6-0.1,0.9-0.4c0.2-0.2,0.4-0.5,0.4-0.9s-0.1-0.6-0.4-0.9C26,37.9,25.7,37.7,25.4,37.7z"/>
	<path class="st2" d="M52.7,12.5c0.3,0,0.6-0.1,0.9-0.4c0.2-0.2,0.4-0.5,0.4-0.9s-0.1-0.6-0.4-0.9C53.4,10.1,53,10,52.7,10
		s-0.6,0.1-0.9,0.4c-0.2,0.2-0.4,0.5-0.4,0.9c0,0.3,0.1,0.6,0.4,0.9S52.4,12.5,52.7,12.5z"/>
	<path class="st2" d="M18.7,33.1c-0.3,0-0.6,0.1-0.9,0.4c-0.2,0.2-0.4,0.5-0.4,0.9c0,0.3,0.1,0.6,0.4,0.9s0.5,0.4,0.9,0.4
		c0.3,0,0.6-0.1,0.9-0.4c0.2-0.2,0.4-0.5,0.4-0.9s-0.1-0.6-0.4-0.9C19.3,33.2,19,33.1,18.7,33.1z"/>
	<path class="st2" d="M32.9,21.1c0-0.3-0.1-0.6-0.4-0.9c-0.2-0.2-0.5-0.4-0.9-0.4S31,20,30.8,20.2c-0.2,0.2-0.4,0.5-0.4,0.9
		c0,0.3,0.1,0.6,0.4,0.9c0.2,0.2,0.5,0.4,0.9,0.4s0.6-0.1,0.9-0.4C32.8,21.7,32.9,21.4,32.9,21.1z"/>
	<path class="st2" d="M23.3,11.5c-0.3,0-0.6,0.1-0.9,0.4c-0.2,0.2-0.4,0.5-0.4,0.9c0,0.3,0.1,0.6,0.4,0.9c0.2,0.2,0.5,0.4,0.9,0.4
		s0.6-0.1,0.9-0.4c0.2-0.2,0.4-0.5,0.4-0.9s-0.1-0.6-0.4-0.9C23.9,11.7,23.6,11.5,23.3,11.5z"/>
	<path class="st2" d="M47.6,26.8c-0.3,0-0.6,0.1-0.9,0.4c-0.2,0.2-0.4,0.5-0.4,0.9c0,0.3,0.1,0.6,0.4,0.9c0.2,0.2,0.5,0.4,0.9,0.4
		s0.6-0.1,0.9-0.4c0.2-0.2,0.4-0.5,0.4-0.9s-0.1-0.6-0.4-0.9C48.2,26.9,47.9,26.8,47.6,26.8z"/>
	<path class="st2" d="M40.2,20.2c0.3,0,0.6-0.1,0.9-0.4c0.2-0.2,0.4-0.5,0.4-0.9s-0.1-0.6-0.4-0.9c-0.2-0.2-0.5-0.4-0.9-0.4
		c-0.3,0-0.6,0.1-0.9,0.4C39.1,18.4,39,18.7,39,19c0,0.3,0.1,0.6,0.4,0.9C39.6,20.1,39.9,20.2,40.2,20.2z"/>
	<path class="st2" d="M42.6,33.9c-0.3,0-0.6,0.1-0.9,0.4c-0.2,0.2-0.4,0.5-0.4,0.9c0,0.3,0.1,0.6,0.4,0.9c0.2,0.2,0.5,0.4,0.9,0.4
		s0.6-0.1,0.9-0.4c0.2-0.2,0.4-0.5,0.4-0.9s-0.1-0.6-0.4-0.9C43.2,34,42.9,33.9,42.6,33.9z"/>
	<path class="st2" d="M40.1,21.3c-2.3,0-4.2,1.9-4.2,4.2c0,2.3,1.9,4.3,4.2,4.3c2.4,0,4.3-1.9,4.2-4.3
		C44.4,23.2,42.5,21.3,40.1,21.3z M40.2,27.7c-1.1,0-2.1-0.9-2.1-2c0-1.2,0.9-2.2,2.1-2.2c1.2,0,2.1,0.9,2.1,2.1
		C42.3,26.7,41.4,27.7,40.2,27.7z"/>
	<path class="st2" d="M36,32.1c-2.4,0-4.2,1.9-4.2,4.3c0,2.3,1.8,4.2,4.2,4.2c2.4,0,4.3-1.8,4.3-4.2C40.2,34,38.3,32.1,36,32.1z
		 M36,38.5c-1.2,0.1-2.2-0.9-2.2-2.1c0-1.2,0.9-2.1,2.1-2.1c1.2,0,2.1,0.9,2.1,2C38.1,37.4,37.2,38.4,36,38.5z"/>
	<path class="st2" d="M65.4,23.3c-0.2-2.2-0.5-4.5-1.4-6.6c-0.8-1.8-2.5-4-4.7-4.8c-1-0.4-2.1-0.3-2.9,0.3c-1,0.7-1.7,1.9-1.7,3.3v0
		c-0.1,1.3,0.3,2.6,0.7,3.8c0.1,0.2,0.1,0.4,0.2,0.5c-1.1-0.4-3.2-1.2-4-1.5C40.2,14.1,29,9.9,17.7,5.7c-0.4-0.2-1.2-0.1-1.5,0.1
		c-0.3,0.2-0.3,1-0.1,1.4c3,8.1,6,16.2,9.1,24.3c1.3,3.5,4.1,11.7,5.6,15.7c-0.4,0.4-0.7,0.8-0.9,1.3c-0.1,0.2-0.1,0.4-0.2,0.7h0
		v0.3c0,0.1,0,0.1,0,0.2v13.2c0,1.8,1.5,3.2,3.2,3.2c0.6,0,1.1-0.2,1.5-0.4v3.7c0,1.8,1.5,3.2,3.2,3.2s3.2-1.5,3.2-3.2V53.6
		c8.1-1.7,14.5-7.4,17.8-11.1c3.1-3.4,5-6.4,6-9.5C65.7,29.6,65.6,26.1,65.4,23.3z M48.9,19.7c0.2,0,0.4,0,0.5,0.1
		c1.1,0.4,2.2,0.8,3.3,1.3c-0.8,1.2-1.8,1.5-2.8,1.1C49,21.8,48.6,21,48.9,19.7z M27.8,11.8c1.2,0.5,2.5,0.9,3.8,1.4
		c-0.6,1.5-1.6,2.1-2.7,1.7C27.7,14.4,27.3,13.3,27.8,11.8z M26.3,28.4c-0.5-1.3-1-2.5-1.5-3.8c1.2-0.2,2.1,0.3,2.5,1.2
		C27.7,26.8,27.4,27.7,26.3,28.4z M39.2,52.1c-0.2,0,0,17.3,0,17.3c0,0.8-0.7,1.5-1.5,1.5c-0.8,0-1.5-0.7-1.5-1.5V56.9h-1.7v5.9h0
		c0,0.8-0.7,1.5-1.5,1.5c-0.8,0-1.5-0.7-1.5-1.5V49.4h0c0-0.1,0-0.2,0.1-0.3c0.3-0.8,1.2-1.3,2-1.4c0.7-0.2,1.4-0.2,2.2-0.2
		c0.4,0,0.7,0,1.1,0c0.5,0,0.5-0.1,1-0.1l0,0c0.4-0.1,1,0.2,1.3,0.6C39.5,48.9,39.5,50.8,39.2,52.1z M38.3,45.6
		c-0.2,0-0.4,0-0.5,0.1l0,0c-0.4,0-0.8,0.1-1.1,0.1c-0.3,0-0.7,0-1,0c-0.8,0-1.7,0-2.5,0.2c-0.2,0-0.3,0.1-0.5,0.1
		c-1.5-4.1-4.2-12-5.5-15.5c2.4-1.9,3-3.6,2.2-5.6c-0.7-1.9-2.4-2.7-5.3-2.6c-1.7-4.6-3.5-9.2-5.3-14.1c2.5,0.9,4.7,1.8,6.9,2.6
		c-0.3,3.6,0.5,5.3,2.8,6c2.1,0.7,3.9-0.3,5.5-2.9c1.3,0.5,2.7,1,4.1,1.5c2.7,1,5.3,2,8,3c0.6,0.2,0.9,0.4,0.8,1.1
		c-0.3,2.2,0.8,3.9,2.7,4.6c1.8,0.7,3.6,0.1,4.9-1.5l2.3,1.3c0.5,3.3-0.2,8.2-7,15.4C46.4,42.7,42.4,44.9,38.3,45.6z M63,32.5
		c-0.9,2.8-2.6,5.6-5.6,8.8c-3.1,3.3-8.7,8.5-15.9,10.3c0.2-1.5,0.1-3.4-0.6-4.6c-0.1-0.1-0.1-0.2-0.2-0.2c3.7-1,7.2-3.2,10-6.1
		c9.6-10.1,7.8-16.3,6.9-19.7c-0.1-0.3-0.2-0.5-0.2-0.8c-0.1-0.5-0.3-1-0.4-1.5c-0.3-1.1-0.7-2.1-0.6-3.2c0-0.8,0.4-1.6,1-1.9
		c0.4-0.3,0.9-0.3,1.4-0.1c1.7,0.6,3,2.4,3.7,3.9c0.8,1.9,1.1,4,1.3,6C63.9,26,64,29.4,63,32.5z"/>
</g>
</svg>
